<?xml version="1.0" encoding="utf-8" standalone="no"?>
<!DOCTYPE svg PUBLIC "-//W3C//DTD SVG 1.1//EN"
  "http://www.w3.org/Graphics/SVG/1.1/DTD/svg11.dtd">
<svg xmlns:xlink="http://www.w3.org/1999/xlink" width="1296pt" height="432pt" viewBox="0 0 1296 432" xmlns="http://www.w3.org/2000/svg" version="1.1">
 <metadata>
  <rdf:RDF xmlns:dc="http://purl.org/dc/elements/1.1/" xmlns:cc="http://creativecommons.org/ns#" xmlns:rdf="http://www.w3.org/1999/02/22-rdf-syntax-ns#">
   <cc:Work>
    <dc:type rdf:resource="http://purl.org/dc/dcmitype/StillImage"/>
    <dc:date>2022-11-09T19:09:32.461187</dc:date>
    <dc:format>image/svg+xml</dc:format>
    <dc:creator>
     <cc:Agent>
      <dc:title>Matplotlib v3.6.1, https://matplotlib.org/</dc:title>
     </cc:Agent>
    </dc:creator>
   </cc:Work>
  </rdf:RDF>
 </metadata>
 <defs>
  <style type="text/css">*{stroke-linejoin: round; stroke-linecap: butt}</style>
 </defs>
 <g id="figure_1">
  <g id="patch_1">
   <path d="M 0 432 
L 1296 432 
L 1296 0 
L 0 0 
z
" style="fill: #ffffff"/>
  </g>
  <g id="axes_1">
   <g id="patch_2">
    <path d="M 162 384.48 
L 1166.4 384.48 
L 1166.4 51.84 
L 162 51.84 
z
" style="fill: #ffffff"/>
   </g>
   <g id="patch_3">
    <path d="M 207.654545 643.437018 
L 216.434266 643.437018 
L 216.434266 133.097475 
L 207.654545 133.097475 
z
" clip-path="url(#pd3498c3752)" style="fill: #1f77b4"/>
   </g>
   <g id="patch_4">
    <path d="M 295.451748 643.437018 
L 304.231469 643.437018 
L 304.231469 101.569458 
L 295.451748 101.569458 
z
" clip-path="url(#pd3498c3752)" style="fill: #1f77b4"/>
   </g>
   <g id="patch_5">
    <path d="M 383.248951 643.437018 
L 392.028671 643.437018 
L 392.028671 80.011287 
L 383.248951 80.011287 
z
" clip-path="url(#pd3498c3752)" style="fill: #1f77b4"/>
   </g>
   <g id="patch_6">
    <path d="M 471.046154 643.437018 
L 479.825874 643.437018 
L 479.825874 82.600857 
L 471.046154 82.600857 
z
" clip-path="url(#pd3498c3752)" style="fill: #1f77b4"/>
   </g>
   <g id="patch_7">
    <path d="M 558.843357 643.437018 
L 567.623077 643.437018 
L 567.623077 185.730489 
L 558.843357 185.730489 
z
" clip-path="url(#pd3498c3752)" style="fill: #1f77b4"/>
   </g>
   <g id="patch_8">
    <path d="M 646.640559 643.437018 
L 655.42028 643.437018 
L 655.42028 82.147682 
L 646.640559 82.147682 
z
" clip-path="url(#pd3498c3752)" style="fill: #1f77b4"/>
   </g>
   <g id="patch_9">
    <path d="M 734.437762 643.437018 
L 743.217483 643.437018 
L 743.217483 180.357131 
L 734.437762 180.357131 
z
" clip-path="url(#pd3498c3752)" style="fill: #1f77b4"/>
   </g>
   <g id="patch_10">
    <path d="M 822.234965 643.437018 
L 831.014685 643.437018 
L 831.014685 111.280346 
L 822.234965 111.280346 
z
" clip-path="url(#pd3498c3752)" style="fill: #1f77b4"/>
   </g>
   <g id="patch_11">
    <path d="M 910.032168 643.437018 
L 918.811888 643.437018 
L 918.811888 170.193068 
L 910.032168 170.193068 
z
" clip-path="url(#pd3498c3752)" style="fill: #1f77b4"/>
   </g>
   <g id="patch_12">
    <path d="M 997.829371 643.437018 
L 1006.609091 643.437018 
L 1006.609091 146.886936 
L 997.829371 146.886936 
z
" clip-path="url(#pd3498c3752)" style="fill: #1f77b4"/>
   </g>
   <g id="patch_13">
    <path d="M 1085.626573 643.437018 
L 1094.406294 643.437018 
L 1094.406294 119.955407 
L 1085.626573 119.955407 
z
" clip-path="url(#pd3498c3752)" style="fill: #1f77b4"/>
   </g>
   <g id="patch_14">
    <path d="M 216.434266 643.437018 
L 225.213986 643.437018 
L 225.213986 152.066077 
L 216.434266 152.066077 
z
" clip-path="url(#pd3498c3752)" style="fill: #ff7f0e"/>
   </g>
   <g id="patch_15">
    <path d="M 304.231469 643.437018 
L 313.011189 643.437018 
L 313.011189 129.407338 
L 304.231469 129.407338 
z
" clip-path="url(#pd3498c3752)" style="fill: #ff7f0e"/>
   </g>
   <g id="patch_16">
    <path d="M 392.028671 643.437018 
L 400.808392 643.437018 
L 400.808392 106.748599 
L 392.028671 106.748599 
z
" clip-path="url(#pd3498c3752)" style="fill: #ff7f0e"/>
   </g>
   <g id="patch_17">
    <path d="M 479.825874 643.437018 
L 488.605594 643.437018 
L 488.605594 91.85857 
L 479.825874 91.85857 
z
" clip-path="url(#pd3498c3752)" style="fill: #ff7f0e"/>
   </g>
   <g id="patch_18">
    <path d="M 567.623077 643.437018 
L 576.402797 643.437018 
L 576.402797 207.741835 
L 567.623077 207.741835 
z
" clip-path="url(#pd3498c3752)" style="fill: #ff7f0e"/>
   </g>
   <g id="patch_19">
    <path d="M 655.42028 643.437018 
L 664.2 643.437018 
L 664.2 117.754272 
L 655.42028 117.754272 
z
" clip-path="url(#pd3498c3752)" style="fill: #ff7f0e"/>
   </g>
   <g id="patch_20">
    <path d="M 743.217483 643.437018 
L 751.997203 643.437018 
L 751.997203 196.736162 
L 743.217483 196.736162 
z
" clip-path="url(#pd3498c3752)" style="fill: #ff7f0e"/>
   </g>
   <g id="patch_21">
    <path d="M 831.014685 643.437018 
L 839.794406 643.437018 
L 839.794406 154.008254 
L 831.014685 154.008254 
z
" clip-path="url(#pd3498c3752)" style="fill: #ff7f0e"/>
   </g>
   <g id="patch_22">
    <path d="M 918.811888 643.437018 
L 927.591608 643.437018 
L 927.591608 201.915303 
L 918.811888 201.915303 
z
" clip-path="url(#pd3498c3752)" style="fill: #ff7f0e"/>
   </g>
   <g id="patch_23">
    <path d="M 1006.609091 643.437018 
L 1015.388811 643.437018 
L 1015.388811 190.909629 
L 1006.609091 190.909629 
z
" clip-path="url(#pd3498c3752)" style="fill: #ff7f0e"/>
   </g>
   <g id="patch_24">
    <path d="M 1094.406294 643.437018 
L 1103.186014 643.437018 
L 1103.186014 165.66132 
L 1094.406294 165.66132 
z
" clip-path="url(#pd3498c3752)" style="fill: #ff7f0e"/>
   </g>
   <g id="patch_25">
    <path d="M 225.213986 643.437018 
L 233.993706 643.437018 
L 233.993706 182.493526 
L 225.213986 182.493526 
z
" clip-path="url(#pd3498c3752)" style="fill: #2ca02c"/>
   </g>
   <g id="patch_26">
    <path d="M 313.011189 643.437018 
L 321.790909 643.437018 
L 321.790909 152.713469 
L 313.011189 152.713469 
z
" clip-path="url(#pd3498c3752)" style="fill: #2ca02c"/>
   </g>
   <g id="patch_27">
    <path d="M 400.808392 643.437018 
L 409.588112 643.437018 
L 409.588112 122.933412 
L 400.808392 122.933412 
z
" clip-path="url(#pd3498c3752)" style="fill: #2ca02c"/>
   </g>
   <g id="patch_28">
    <path d="M 488.605594 643.437018 
L 497.385315 643.437018 
L 497.385315 122.933412 
L 488.605594 122.933412 
z
" clip-path="url(#pd3498c3752)" style="fill: #2ca02c"/>
   </g>
   <g id="patch_29">
    <path d="M 576.402797 643.437018 
L 585.182517 643.437018 
L 585.182517 221.337079 
L 576.402797 221.337079 
z
" clip-path="url(#pd3498c3752)" style="fill: #2ca02c"/>
   </g>
   <g id="patch_30">
    <path d="M 664.2 643.437018 
L 672.97972 643.437018 
L 672.97972 146.239544 
L 664.2 146.239544 
z
" clip-path="url(#pd3498c3752)" style="fill: #2ca02c"/>
   </g>
   <g id="patch_31">
    <path d="M 751.997203 643.437018 
L 760.776923 643.437018 
L 760.776923 229.105789 
L 751.997203 229.105789 
z
" clip-path="url(#pd3498c3752)" style="fill: #2ca02c"/>
   </g>
   <g id="patch_32">
    <path d="M 839.794406 643.437018 
L 848.574126 643.437018 
L 848.574126 182.493526 
L 839.794406 182.493526 
z
" clip-path="url(#pd3498c3752)" style="fill: #2ca02c"/>
   </g>
   <g id="patch_33">
    <path d="M 927.591608 643.437018 
L 936.371329 643.437018 
L 936.371329 196.736162 
L 927.591608 196.736162 
z
" clip-path="url(#pd3498c3752)" style="fill: #2ca02c"/>
   </g>
   <g id="patch_34">
    <path d="M 1015.388811 643.437018 
L 1024.168531 643.437018 
L 1024.168531 199.325732 
L 1015.388811 199.325732 
z
" clip-path="url(#pd3498c3752)" style="fill: #2ca02c"/>
   </g>
   <g id="patch_35">
    <path d="M 1103.186014 643.437018 
L 1111.965734 643.437018 
L 1111.965734 178.609171 
L 1103.186014 178.609171 
z
" clip-path="url(#pd3498c3752)" style="fill: #2ca02c"/>
   </g>
   <g id="patch_36">
    <path d="M 233.993706 643.437018 
L 242.773427 643.437018 
L 242.773427 209.684013 
L 233.993706 209.684013 
z
" clip-path="url(#pd3498c3752)" style="fill: #d62728"/>
   </g>
   <g id="patch_37">
    <path d="M 321.790909 643.437018 
L 330.570629 643.437018 
L 330.570629 222.631864 
L 321.790909 222.631864 
z
" clip-path="url(#pd3498c3752)" style="fill: #d62728"/>
   </g>
   <g id="patch_38">
    <path d="M 409.588112 643.437018 
L 418.367832 643.437018 
L 418.367832 151.418684 
L 409.588112 151.418684 
z
" clip-path="url(#pd3498c3752)" style="fill: #d62728"/>
   </g>
   <g id="patch_39">
    <path d="M 497.385315 643.437018 
L 506.165035 643.437018 
L 506.165035 112.575132 
L 497.385315 112.575132 
z
" clip-path="url(#pd3498c3752)" style="fill: #d62728"/>
   </g>
   <g id="patch_40">
    <path d="M 585.182517 643.437018 
L 593.962238 643.437018 
L 593.962238 358.584298 
L 585.182517 358.584298 
z
" clip-path="url(#pd3498c3752)" style="fill: #d62728"/>
   </g>
   <g id="patch_41">
    <path d="M 672.97972 643.437018 
L 681.759441 643.437018 
L 681.759441 157.89261 
L 672.97972 157.89261 
z
" clip-path="url(#pd3498c3752)" style="fill: #d62728"/>
   </g>
   <g id="patch_42">
    <path d="M 760.776923 643.437018 
L 769.556643 643.437018 
L 769.556643 242.05364 
L 760.776923 242.05364 
z
" clip-path="url(#pd3498c3752)" style="fill: #d62728"/>
   </g>
   <g id="patch_43">
    <path d="M 848.574126 643.437018 
L 857.353846 643.437018 
L 857.353846 332.688596 
L 848.574126 332.688596 
z
" clip-path="url(#pd3498c3752)" style="fill: #d62728"/>
   </g>
   <g id="patch_44">
    <path d="M 936.371329 643.437018 
L 945.151049 643.437018 
L 945.151049 229.105789 
L 936.371329 229.105789 
z
" clip-path="url(#pd3498c3752)" style="fill: #d62728"/>
   </g>
   <g id="patch_45">
    <path d="M 1024.168531 643.437018 
L 1032.948252 643.437018 
L 1032.948252 203.210088 
L 1024.168531 203.210088 
z
" clip-path="url(#pd3498c3752)" style="fill: #d62728"/>
   </g>
   <g id="patch_46">
    <path d="M 1111.965734 643.437018 
L 1120.745455 643.437018 
L 1120.745455 196.736162 
L 1111.965734 196.736162 
z
" clip-path="url(#pd3498c3752)" style="fill: #d62728"/>
   </g>
   <g id="matplotlib.axis_1">
    <g id="xtick_1">
     <g id="line2d_1">
      <defs>
       <path id="m9466a0d3cb" d="M 0 0 
L 0 3.5 
" style="stroke: #000000; stroke-width: 0.8"/>
      </defs>
      <g>
       <use xlink:href="#m9466a0d3cb" x="224.336014" y="384.48" style="stroke: #000000; stroke-width: 0.8"/>
      </g>
     </g>
     <g id="text_1">
      <!-- BERT -->
      <g transform="translate(211.580545 399.078438) scale(0.1 -0.1)">
       <defs>
        <path id="DejaVuSans-42" d="M 1259 2228 
L 1259 519 
L 2272 519 
Q 2781 519 3026 730 
Q 3272 941 3272 1375 
Q 3272 1813 3026 2020 
Q 2781 2228 2272 2228 
L 1259 2228 
z
M 1259 4147 
L 1259 2741 
L 2194 2741 
Q 2656 2741 2882 2914 
Q 3109 3088 3109 3444 
Q 3109 3797 2882 3972 
Q 2656 4147 2194 4147 
L 1259 4147 
z
M 628 4666 
L 2241 4666 
Q 2963 4666 3353 4366 
Q 3744 4066 3744 3513 
Q 3744 3084 3544 2831 
Q 3344 2578 2956 2516 
Q 3422 2416 3680 2098 
Q 3938 1781 3938 1306 
Q 3938 681 3513 340 
Q 3088 0 2303 0 
L 628 0 
L 628 4666 
z
" transform="scale(0.015625)"/>
        <path id="DejaVuSans-45" d="M 628 4666 
L 3578 4666 
L 3578 4134 
L 1259 4134 
L 1259 2753 
L 3481 2753 
L 3481 2222 
L 1259 2222 
L 1259 531 
L 3634 531 
L 3634 0 
L 628 0 
L 628 4666 
z
" transform="scale(0.015625)"/>
        <path id="DejaVuSans-52" d="M 2841 2188 
Q 3044 2119 3236 1894 
Q 3428 1669 3622 1275 
L 4263 0 
L 3584 0 
L 2988 1197 
Q 2756 1666 2539 1819 
Q 2322 1972 1947 1972 
L 1259 1972 
L 1259 0 
L 628 0 
L 628 4666 
L 2053 4666 
Q 2853 4666 3247 4331 
Q 3641 3997 3641 3322 
Q 3641 2881 3436 2590 
Q 3231 2300 2841 2188 
z
M 1259 4147 
L 1259 2491 
L 2053 2491 
Q 2509 2491 2742 2702 
Q 2975 2913 2975 3322 
Q 2975 3731 2742 3939 
Q 2509 4147 2053 4147 
L 1259 4147 
z
" transform="scale(0.015625)"/>
        <path id="DejaVuSans-54" d="M -19 4666 
L 3928 4666 
L 3928 4134 
L 2272 4134 
L 2272 0 
L 1638 0 
L 1638 4134 
L -19 4134 
L -19 4666 
z
" transform="scale(0.015625)"/>
       </defs>
       <use xlink:href="#DejaVuSans-42"/>
       <use xlink:href="#DejaVuSans-45" x="68.603516"/>
       <use xlink:href="#DejaVuSans-52" x="131.787109"/>
       <use xlink:href="#DejaVuSans-54" x="194.019531"/>
      </g>
     </g>
    </g>
    <g id="xtick_2">
     <g id="line2d_2">
      <g>
       <use xlink:href="#m9466a0d3cb" x="312.133217" y="384.48" style="stroke: #000000; stroke-width: 0.8"/>
      </g>
     </g>
     <g id="text_2">
      <!-- RoBERTa -->
      <g transform="translate(290.830092 399.078438) scale(0.1 -0.1)">
       <defs>
        <path id="DejaVuSans-6f" d="M 1959 3097 
Q 1497 3097 1228 2736 
Q 959 2375 959 1747 
Q 959 1119 1226 758 
Q 1494 397 1959 397 
Q 2419 397 2687 759 
Q 2956 1122 2956 1747 
Q 2956 2369 2687 2733 
Q 2419 3097 1959 3097 
z
M 1959 3584 
Q 2709 3584 3137 3096 
Q 3566 2609 3566 1747 
Q 3566 888 3137 398 
Q 2709 -91 1959 -91 
Q 1206 -91 779 398 
Q 353 888 353 1747 
Q 353 2609 779 3096 
Q 1206 3584 1959 3584 
z
" transform="scale(0.015625)"/>
        <path id="DejaVuSans-61" d="M 2194 1759 
Q 1497 1759 1228 1600 
Q 959 1441 959 1056 
Q 959 750 1161 570 
Q 1363 391 1709 391 
Q 2188 391 2477 730 
Q 2766 1069 2766 1631 
L 2766 1759 
L 2194 1759 
z
M 3341 1997 
L 3341 0 
L 2766 0 
L 2766 531 
Q 2569 213 2275 61 
Q 1981 -91 1556 -91 
Q 1019 -91 701 211 
Q 384 513 384 1019 
Q 384 1609 779 1909 
Q 1175 2209 1959 2209 
L 2766 2209 
L 2766 2266 
Q 2766 2663 2505 2880 
Q 2244 3097 1772 3097 
Q 1472 3097 1187 3025 
Q 903 2953 641 2809 
L 641 3341 
Q 956 3463 1253 3523 
Q 1550 3584 1831 3584 
Q 2591 3584 2966 3190 
Q 3341 2797 3341 1997 
z
" transform="scale(0.015625)"/>
       </defs>
       <use xlink:href="#DejaVuSans-52"/>
       <use xlink:href="#DejaVuSans-6f" x="64.982422"/>
       <use xlink:href="#DejaVuSans-42" x="126.164062"/>
       <use xlink:href="#DejaVuSans-45" x="194.767578"/>
       <use xlink:href="#DejaVuSans-52" x="257.951172"/>
       <use xlink:href="#DejaVuSans-54" x="320.183594"/>
       <use xlink:href="#DejaVuSans-61" x="364.767578"/>
      </g>
     </g>
    </g>
    <g id="xtick_3">
     <g id="line2d_3">
      <g>
       <use xlink:href="#m9466a0d3cb" x="399.93042" y="384.48" style="stroke: #000000; stroke-width: 0.8"/>
      </g>
     </g>
     <g id="text_3">
      <!-- DistilBERT -->
      <g transform="translate(374.59292 399.078438) scale(0.1 -0.1)">
       <defs>
        <path id="DejaVuSans-44" d="M 1259 4147 
L 1259 519 
L 2022 519 
Q 2988 519 3436 956 
Q 3884 1394 3884 2338 
Q 3884 3275 3436 3711 
Q 2988 4147 2022 4147 
L 1259 4147 
z
M 628 4666 
L 1925 4666 
Q 3281 4666 3915 4102 
Q 4550 3538 4550 2338 
Q 4550 1131 3912 565 
Q 3275 0 1925 0 
L 628 0 
L 628 4666 
z
" transform="scale(0.015625)"/>
        <path id="DejaVuSans-69" d="M 603 3500 
L 1178 3500 
L 1178 0 
L 603 0 
L 603 3500 
z
M 603 4863 
L 1178 4863 
L 1178 4134 
L 603 4134 
L 603 4863 
z
" transform="scale(0.015625)"/>
        <path id="DejaVuSans-73" d="M 2834 3397 
L 2834 2853 
Q 2591 2978 2328 3040 
Q 2066 3103 1784 3103 
Q 1356 3103 1142 2972 
Q 928 2841 928 2578 
Q 928 2378 1081 2264 
Q 1234 2150 1697 2047 
L 1894 2003 
Q 2506 1872 2764 1633 
Q 3022 1394 3022 966 
Q 3022 478 2636 193 
Q 2250 -91 1575 -91 
Q 1294 -91 989 -36 
Q 684 19 347 128 
L 347 722 
Q 666 556 975 473 
Q 1284 391 1588 391 
Q 1994 391 2212 530 
Q 2431 669 2431 922 
Q 2431 1156 2273 1281 
Q 2116 1406 1581 1522 
L 1381 1569 
Q 847 1681 609 1914 
Q 372 2147 372 2553 
Q 372 3047 722 3315 
Q 1072 3584 1716 3584 
Q 2034 3584 2315 3537 
Q 2597 3491 2834 3397 
z
" transform="scale(0.015625)"/>
        <path id="DejaVuSans-74" d="M 1172 4494 
L 1172 3500 
L 2356 3500 
L 2356 3053 
L 1172 3053 
L 1172 1153 
Q 1172 725 1289 603 
Q 1406 481 1766 481 
L 2356 481 
L 2356 0 
L 1766 0 
Q 1100 0 847 248 
Q 594 497 594 1153 
L 594 3053 
L 172 3053 
L 172 3500 
L 594 3500 
L 594 4494 
L 1172 4494 
z
" transform="scale(0.015625)"/>
        <path id="DejaVuSans-6c" d="M 603 4863 
L 1178 4863 
L 1178 0 
L 603 0 
L 603 4863 
z
" transform="scale(0.015625)"/>
       </defs>
       <use xlink:href="#DejaVuSans-44"/>
       <use xlink:href="#DejaVuSans-69" x="77.001953"/>
       <use xlink:href="#DejaVuSans-73" x="104.785156"/>
       <use xlink:href="#DejaVuSans-74" x="156.884766"/>
       <use xlink:href="#DejaVuSans-69" x="196.09375"/>
       <use xlink:href="#DejaVuSans-6c" x="223.876953"/>
       <use xlink:href="#DejaVuSans-42" x="251.660156"/>
       <use xlink:href="#DejaVuSans-45" x="320.263672"/>
       <use xlink:href="#DejaVuSans-52" x="383.447266"/>
       <use xlink:href="#DejaVuSans-54" x="445.679688"/>
      </g>
     </g>
    </g>
    <g id="xtick_4">
     <g id="line2d_4">
      <g>
       <use xlink:href="#m9466a0d3cb" x="487.727622" y="384.48" style="stroke: #000000; stroke-width: 0.8"/>
      </g>
     </g>
     <g id="text_4">
      <!-- DeBERTa -->
      <g transform="translate(465.806529 399.078438) scale(0.1 -0.1)">
       <defs>
        <path id="DejaVuSans-65" d="M 3597 1894 
L 3597 1613 
L 953 1613 
Q 991 1019 1311 708 
Q 1631 397 2203 397 
Q 2534 397 2845 478 
Q 3156 559 3463 722 
L 3463 178 
Q 3153 47 2828 -22 
Q 2503 -91 2169 -91 
Q 1331 -91 842 396 
Q 353 884 353 1716 
Q 353 2575 817 3079 
Q 1281 3584 2069 3584 
Q 2775 3584 3186 3129 
Q 3597 2675 3597 1894 
z
M 3022 2063 
Q 3016 2534 2758 2815 
Q 2500 3097 2075 3097 
Q 1594 3097 1305 2825 
Q 1016 2553 972 2059 
L 3022 2063 
z
" transform="scale(0.015625)"/>
       </defs>
       <use xlink:href="#DejaVuSans-44"/>
       <use xlink:href="#DejaVuSans-65" x="77.001953"/>
       <use xlink:href="#DejaVuSans-42" x="138.525391"/>
       <use xlink:href="#DejaVuSans-45" x="207.128906"/>
       <use xlink:href="#DejaVuSans-52" x="270.3125"/>
       <use xlink:href="#DejaVuSans-54" x="332.544922"/>
       <use xlink:href="#DejaVuSans-61" x="377.128906"/>
      </g>
     </g>
    </g>
    <g id="xtick_5">
     <g id="line2d_5">
      <g>
       <use xlink:href="#m9466a0d3cb" x="575.524825" y="384.48" style="stroke: #000000; stroke-width: 0.8"/>
      </g>
     </g>
     <g id="text_5">
      <!-- mBERT -->
      <g transform="translate(557.899044 399.078438) scale(0.1 -0.1)">
       <defs>
        <path id="DejaVuSans-6d" d="M 3328 2828 
Q 3544 3216 3844 3400 
Q 4144 3584 4550 3584 
Q 5097 3584 5394 3201 
Q 5691 2819 5691 2113 
L 5691 0 
L 5113 0 
L 5113 2094 
Q 5113 2597 4934 2840 
Q 4756 3084 4391 3084 
Q 3944 3084 3684 2787 
Q 3425 2491 3425 1978 
L 3425 0 
L 2847 0 
L 2847 2094 
Q 2847 2600 2669 2842 
Q 2491 3084 2119 3084 
Q 1678 3084 1418 2786 
Q 1159 2488 1159 1978 
L 1159 0 
L 581 0 
L 581 3500 
L 1159 3500 
L 1159 2956 
Q 1356 3278 1631 3431 
Q 1906 3584 2284 3584 
Q 2666 3584 2933 3390 
Q 3200 3197 3328 2828 
z
" transform="scale(0.015625)"/>
       </defs>
       <use xlink:href="#DejaVuSans-6d"/>
       <use xlink:href="#DejaVuSans-42" x="97.412109"/>
       <use xlink:href="#DejaVuSans-45" x="166.015625"/>
       <use xlink:href="#DejaVuSans-52" x="229.199219"/>
       <use xlink:href="#DejaVuSans-54" x="291.431641"/>
      </g>
     </g>
    </g>
    <g id="xtick_6">
     <g id="line2d_6">
      <g>
       <use xlink:href="#m9466a0d3cb" x="663.322028" y="384.48" style="stroke: #000000; stroke-width: 0.8"/>
      </g>
     </g>
     <g id="text_6">
      <!-- XLMRoBERTa -->
      <g transform="translate(631.493903 399.078438) scale(0.1 -0.1)">
       <defs>
        <path id="DejaVuSans-58" d="M 403 4666 
L 1081 4666 
L 2241 2931 
L 3406 4666 
L 4084 4666 
L 2584 2425 
L 4184 0 
L 3506 0 
L 2194 1984 
L 872 0 
L 191 0 
L 1856 2491 
L 403 4666 
z
" transform="scale(0.015625)"/>
        <path id="DejaVuSans-4c" d="M 628 4666 
L 1259 4666 
L 1259 531 
L 3531 531 
L 3531 0 
L 628 0 
L 628 4666 
z
" transform="scale(0.015625)"/>
        <path id="DejaVuSans-4d" d="M 628 4666 
L 1569 4666 
L 2759 1491 
L 3956 4666 
L 4897 4666 
L 4897 0 
L 4281 0 
L 4281 4097 
L 3078 897 
L 2444 897 
L 1241 4097 
L 1241 0 
L 628 0 
L 628 4666 
z
" transform="scale(0.015625)"/>
       </defs>
       <use xlink:href="#DejaVuSans-58"/>
       <use xlink:href="#DejaVuSans-4c" x="68.505859"/>
       <use xlink:href="#DejaVuSans-4d" x="124.21875"/>
       <use xlink:href="#DejaVuSans-52" x="210.498047"/>
       <use xlink:href="#DejaVuSans-6f" x="275.480469"/>
       <use xlink:href="#DejaVuSans-42" x="336.662109"/>
       <use xlink:href="#DejaVuSans-45" x="405.265625"/>
       <use xlink:href="#DejaVuSans-52" x="468.449219"/>
       <use xlink:href="#DejaVuSans-54" x="530.681641"/>
       <use xlink:href="#DejaVuSans-61" x="575.265625"/>
      </g>
     </g>
    </g>
    <g id="xtick_7">
     <g id="line2d_7">
      <g>
       <use xlink:href="#m9466a0d3cb" x="751.119231" y="384.48" style="stroke: #000000; stroke-width: 0.8"/>
      </g>
     </g>
     <g id="text_7">
      <!-- HindiRoBERTa -->
      <g transform="translate(716.934856 399.078438) scale(0.1 -0.1)">
       <defs>
        <path id="DejaVuSans-48" d="M 628 4666 
L 1259 4666 
L 1259 2753 
L 3553 2753 
L 3553 4666 
L 4184 4666 
L 4184 0 
L 3553 0 
L 3553 2222 
L 1259 2222 
L 1259 0 
L 628 0 
L 628 4666 
z
" transform="scale(0.015625)"/>
        <path id="DejaVuSans-6e" d="M 3513 2113 
L 3513 0 
L 2938 0 
L 2938 2094 
Q 2938 2591 2744 2837 
Q 2550 3084 2163 3084 
Q 1697 3084 1428 2787 
Q 1159 2491 1159 1978 
L 1159 0 
L 581 0 
L 581 3500 
L 1159 3500 
L 1159 2956 
Q 1366 3272 1645 3428 
Q 1925 3584 2291 3584 
Q 2894 3584 3203 3211 
Q 3513 2838 3513 2113 
z
" transform="scale(0.015625)"/>
        <path id="DejaVuSans-64" d="M 2906 2969 
L 2906 4863 
L 3481 4863 
L 3481 0 
L 2906 0 
L 2906 525 
Q 2725 213 2448 61 
Q 2172 -91 1784 -91 
Q 1150 -91 751 415 
Q 353 922 353 1747 
Q 353 2572 751 3078 
Q 1150 3584 1784 3584 
Q 2172 3584 2448 3432 
Q 2725 3281 2906 2969 
z
M 947 1747 
Q 947 1113 1208 752 
Q 1469 391 1925 391 
Q 2381 391 2643 752 
Q 2906 1113 2906 1747 
Q 2906 2381 2643 2742 
Q 2381 3103 1925 3103 
Q 1469 3103 1208 2742 
Q 947 2381 947 1747 
z
" transform="scale(0.015625)"/>
       </defs>
       <use xlink:href="#DejaVuSans-48"/>
       <use xlink:href="#DejaVuSans-69" x="75.195312"/>
       <use xlink:href="#DejaVuSans-6e" x="102.978516"/>
       <use xlink:href="#DejaVuSans-64" x="166.357422"/>
       <use xlink:href="#DejaVuSans-69" x="229.833984"/>
       <use xlink:href="#DejaVuSans-52" x="257.617188"/>
       <use xlink:href="#DejaVuSans-6f" x="322.599609"/>
       <use xlink:href="#DejaVuSans-42" x="383.78125"/>
       <use xlink:href="#DejaVuSans-45" x="452.384766"/>
       <use xlink:href="#DejaVuSans-52" x="515.568359"/>
       <use xlink:href="#DejaVuSans-54" x="577.800781"/>
       <use xlink:href="#DejaVuSans-61" x="622.384766"/>
      </g>
     </g>
    </g>
    <g id="xtick_8">
     <g id="line2d_8">
      <g>
       <use xlink:href="#m9466a0d3cb" x="838.916434" y="384.48" style="stroke: #000000; stroke-width: 0.8"/>
      </g>
     </g>
     <g id="text_8">
      <!-- Bi-LSTM -->
      <g transform="translate(818.964871 399.078438) scale(0.1 -0.1)">
       <defs>
        <path id="DejaVuSans-2d" d="M 313 2009 
L 1997 2009 
L 1997 1497 
L 313 1497 
L 313 2009 
z
" transform="scale(0.015625)"/>
        <path id="DejaVuSans-53" d="M 3425 4513 
L 3425 3897 
Q 3066 4069 2747 4153 
Q 2428 4238 2131 4238 
Q 1616 4238 1336 4038 
Q 1056 3838 1056 3469 
Q 1056 3159 1242 3001 
Q 1428 2844 1947 2747 
L 2328 2669 
Q 3034 2534 3370 2195 
Q 3706 1856 3706 1288 
Q 3706 609 3251 259 
Q 2797 -91 1919 -91 
Q 1588 -91 1214 -16 
Q 841 59 441 206 
L 441 856 
Q 825 641 1194 531 
Q 1563 422 1919 422 
Q 2459 422 2753 634 
Q 3047 847 3047 1241 
Q 3047 1584 2836 1778 
Q 2625 1972 2144 2069 
L 1759 2144 
Q 1053 2284 737 2584 
Q 422 2884 422 3419 
Q 422 4038 858 4394 
Q 1294 4750 2059 4750 
Q 2388 4750 2728 4690 
Q 3069 4631 3425 4513 
z
" transform="scale(0.015625)"/>
       </defs>
       <use xlink:href="#DejaVuSans-42"/>
       <use xlink:href="#DejaVuSans-69" x="68.603516"/>
       <use xlink:href="#DejaVuSans-2d" x="96.386719"/>
       <use xlink:href="#DejaVuSans-4c" x="132.470703"/>
       <use xlink:href="#DejaVuSans-53" x="188.183594"/>
       <use xlink:href="#DejaVuSans-54" x="251.660156"/>
       <use xlink:href="#DejaVuSans-4d" x="312.744141"/>
      </g>
     </g>
    </g>
    <g id="xtick_9">
     <g id="line2d_9">
      <g>
       <use xlink:href="#m9466a0d3cb" x="926.713636" y="384.48" style="stroke: #000000; stroke-width: 0.8"/>
      </g>
     </g>
     <g id="text_9">
      <!-- MNB -->
      <g transform="translate(915.22848 399.078438) scale(0.1 -0.1)">
       <defs>
        <path id="DejaVuSans-4e" d="M 628 4666 
L 1478 4666 
L 3547 763 
L 3547 4666 
L 4159 4666 
L 4159 0 
L 3309 0 
L 1241 3903 
L 1241 0 
L 628 0 
L 628 4666 
z
" transform="scale(0.015625)"/>
       </defs>
       <use xlink:href="#DejaVuSans-4d"/>
       <use xlink:href="#DejaVuSans-4e" x="86.279297"/>
       <use xlink:href="#DejaVuSans-42" x="161.083984"/>
      </g>
     </g>
    </g>
    <g id="xtick_10">
     <g id="line2d_10">
      <g>
       <use xlink:href="#m9466a0d3cb" x="1014.510839" y="384.48" style="stroke: #000000; stroke-width: 0.8"/>
      </g>
     </g>
     <g id="text_10">
      <!-- RF -->
      <g transform="translate(1008.160839 399.078438) scale(0.1 -0.1)">
       <defs>
        <path id="DejaVuSans-46" d="M 628 4666 
L 3309 4666 
L 3309 4134 
L 1259 4134 
L 1259 2759 
L 3109 2759 
L 3109 2228 
L 1259 2228 
L 1259 0 
L 628 0 
L 628 4666 
z
" transform="scale(0.015625)"/>
       </defs>
       <use xlink:href="#DejaVuSans-52"/>
       <use xlink:href="#DejaVuSans-46" x="69.482422"/>
      </g>
     </g>
    </g>
    <g id="xtick_11">
     <g id="line2d_11">
      <g>
       <use xlink:href="#m9466a0d3cb" x="1102.308042" y="384.48" style="stroke: #000000; stroke-width: 0.8"/>
      </g>
     </g>
     <g id="text_11">
      <!-- SVM -->
      <g transform="translate(1091.399448 399.078438) scale(0.1 -0.1)">
       <defs>
        <path id="DejaVuSans-56" d="M 1831 0 
L 50 4666 
L 709 4666 
L 2188 738 
L 3669 4666 
L 4325 4666 
L 2547 0 
L 1831 0 
z
" transform="scale(0.015625)"/>
       </defs>
       <use xlink:href="#DejaVuSans-53"/>
       <use xlink:href="#DejaVuSans-56" x="63.476562"/>
       <use xlink:href="#DejaVuSans-4d" x="131.884766"/>
      </g>
     </g>
    </g>
    <g id="text_12">
     <!-- Models -->
     <g transform="translate(646.582031 428.756563) scale(0.1 -0.1)">
      <use xlink:href="#DejaVuSans-4d"/>
      <use xlink:href="#DejaVuSans-6f" x="86.279297"/>
      <use xlink:href="#DejaVuSans-64" x="147.460938"/>
      <use xlink:href="#DejaVuSans-65" x="210.9375"/>
      <use xlink:href="#DejaVuSans-6c" x="272.460938"/>
      <use xlink:href="#DejaVuSans-73" x="300.244141"/>
     </g>
    </g>
   </g>
   <g id="matplotlib.axis_2">
    <g id="ytick_1">
     <g id="line2d_12">
      <path d="M 162 384.48 
L 1166.4 384.48 
" clip-path="url(#pd3498c3752)" style="fill: none; stroke: #b0b0b0; stroke-width: 0.8; stroke-linecap: square"/>
     </g>
     <g id="line2d_13">
      <defs>
       <path id="m61a65a8b1c" d="M 0 0 
L -3.5 0 
" style="stroke: #000000; stroke-width: 0.8"/>
      </defs>
      <g>
       <use xlink:href="#m61a65a8b1c" x="162" y="384.48" style="stroke: #000000; stroke-width: 0.8"/>
      </g>
     </g>
     <g id="text_13">
      <!-- 0.4 -->
      <g transform="translate(139.096875 388.279219) scale(0.1 -0.1)">
       <defs>
        <path id="DejaVuSans-30" d="M 2034 4250 
Q 1547 4250 1301 3770 
Q 1056 3291 1056 2328 
Q 1056 1369 1301 889 
Q 1547 409 2034 409 
Q 2525 409 2770 889 
Q 3016 1369 3016 2328 
Q 3016 3291 2770 3770 
Q 2525 4250 2034 4250 
z
M 2034 4750 
Q 2819 4750 3233 4129 
Q 3647 3509 3647 2328 
Q 3647 1150 3233 529 
Q 2819 -91 2034 -91 
Q 1250 -91 836 529 
Q 422 1150 422 2328 
Q 422 3509 836 4129 
Q 1250 4750 2034 4750 
z
" transform="scale(0.015625)"/>
        <path id="DejaVuSans-2e" d="M 684 794 
L 1344 794 
L 1344 0 
L 684 0 
L 684 794 
z
" transform="scale(0.015625)"/>
        <path id="DejaVuSans-34" d="M 2419 4116 
L 825 1625 
L 2419 1625 
L 2419 4116 
z
M 2253 4666 
L 3047 4666 
L 3047 1625 
L 3713 1625 
L 3713 1100 
L 3047 1100 
L 3047 0 
L 2419 0 
L 2419 1100 
L 313 1100 
L 313 1709 
L 2253 4666 
z
" transform="scale(0.015625)"/>
       </defs>
       <use xlink:href="#DejaVuSans-30"/>
       <use xlink:href="#DejaVuSans-2e" x="63.623047"/>
       <use xlink:href="#DejaVuSans-34" x="95.410156"/>
      </g>
     </g>
    </g>
    <g id="ytick_2">
     <g id="line2d_14">
      <path d="M 162 319.740746 
L 1166.4 319.740746 
" clip-path="url(#pd3498c3752)" style="fill: none; stroke: #b0b0b0; stroke-width: 0.8; stroke-linecap: square"/>
     </g>
     <g id="line2d_15">
      <g>
       <use xlink:href="#m61a65a8b1c" x="162" y="319.740746" style="stroke: #000000; stroke-width: 0.8"/>
      </g>
     </g>
     <g id="text_14">
      <!-- 0.5 -->
      <g transform="translate(139.096875 323.539964) scale(0.1 -0.1)">
       <defs>
        <path id="DejaVuSans-35" d="M 691 4666 
L 3169 4666 
L 3169 4134 
L 1269 4134 
L 1269 2991 
Q 1406 3038 1543 3061 
Q 1681 3084 1819 3084 
Q 2600 3084 3056 2656 
Q 3513 2228 3513 1497 
Q 3513 744 3044 326 
Q 2575 -91 1722 -91 
Q 1428 -91 1123 -41 
Q 819 9 494 109 
L 494 744 
Q 775 591 1075 516 
Q 1375 441 1709 441 
Q 2250 441 2565 725 
Q 2881 1009 2881 1497 
Q 2881 1984 2565 2268 
Q 2250 2553 1709 2553 
Q 1456 2553 1204 2497 
Q 953 2441 691 2322 
L 691 4666 
z
" transform="scale(0.015625)"/>
       </defs>
       <use xlink:href="#DejaVuSans-30"/>
       <use xlink:href="#DejaVuSans-2e" x="63.623047"/>
       <use xlink:href="#DejaVuSans-35" x="95.410156"/>
      </g>
     </g>
    </g>
    <g id="ytick_3">
     <g id="line2d_16">
      <path d="M 162 255.001491 
L 1166.4 255.001491 
" clip-path="url(#pd3498c3752)" style="fill: none; stroke: #b0b0b0; stroke-width: 0.8; stroke-linecap: square"/>
     </g>
     <g id="line2d_17">
      <g>
       <use xlink:href="#m61a65a8b1c" x="162" y="255.001491" style="stroke: #000000; stroke-width: 0.8"/>
      </g>
     </g>
     <g id="text_15">
      <!-- 0.6 -->
      <g transform="translate(139.096875 258.80071) scale(0.1 -0.1)">
       <defs>
        <path id="DejaVuSans-36" d="M 2113 2584 
Q 1688 2584 1439 2293 
Q 1191 2003 1191 1497 
Q 1191 994 1439 701 
Q 1688 409 2113 409 
Q 2538 409 2786 701 
Q 3034 994 3034 1497 
Q 3034 2003 2786 2293 
Q 2538 2584 2113 2584 
z
M 3366 4563 
L 3366 3988 
Q 3128 4100 2886 4159 
Q 2644 4219 2406 4219 
Q 1781 4219 1451 3797 
Q 1122 3375 1075 2522 
Q 1259 2794 1537 2939 
Q 1816 3084 2150 3084 
Q 2853 3084 3261 2657 
Q 3669 2231 3669 1497 
Q 3669 778 3244 343 
Q 2819 -91 2113 -91 
Q 1303 -91 875 529 
Q 447 1150 447 2328 
Q 447 3434 972 4092 
Q 1497 4750 2381 4750 
Q 2619 4750 2861 4703 
Q 3103 4656 3366 4563 
z
" transform="scale(0.015625)"/>
       </defs>
       <use xlink:href="#DejaVuSans-30"/>
       <use xlink:href="#DejaVuSans-2e" x="63.623047"/>
       <use xlink:href="#DejaVuSans-36" x="95.410156"/>
      </g>
     </g>
    </g>
    <g id="ytick_4">
     <g id="line2d_18">
      <path d="M 162 190.262237 
L 1166.4 190.262237 
" clip-path="url(#pd3498c3752)" style="fill: none; stroke: #b0b0b0; stroke-width: 0.8; stroke-linecap: square"/>
     </g>
     <g id="line2d_19">
      <g>
       <use xlink:href="#m61a65a8b1c" x="162" y="190.262237" style="stroke: #000000; stroke-width: 0.8"/>
      </g>
     </g>
     <g id="text_16">
      <!-- 0.7 -->
      <g transform="translate(139.096875 194.061456) scale(0.1 -0.1)">
       <defs>
        <path id="DejaVuSans-37" d="M 525 4666 
L 3525 4666 
L 3525 4397 
L 1831 0 
L 1172 0 
L 2766 4134 
L 525 4134 
L 525 4666 
z
" transform="scale(0.015625)"/>
       </defs>
       <use xlink:href="#DejaVuSans-30"/>
       <use xlink:href="#DejaVuSans-2e" x="63.623047"/>
       <use xlink:href="#DejaVuSans-37" x="95.410156"/>
      </g>
     </g>
    </g>
    <g id="ytick_5">
     <g id="line2d_20">
      <path d="M 162 125.522982 
L 1166.4 125.522982 
" clip-path="url(#pd3498c3752)" style="fill: none; stroke: #b0b0b0; stroke-width: 0.8; stroke-linecap: square"/>
     </g>
     <g id="line2d_21">
      <g>
       <use xlink:href="#m61a65a8b1c" x="162" y="125.522982" style="stroke: #000000; stroke-width: 0.8"/>
      </g>
     </g>
     <g id="text_17">
      <!-- 0.8 -->
      <g transform="translate(139.096875 129.322201) scale(0.1 -0.1)">
       <defs>
        <path id="DejaVuSans-38" d="M 2034 2216 
Q 1584 2216 1326 1975 
Q 1069 1734 1069 1313 
Q 1069 891 1326 650 
Q 1584 409 2034 409 
Q 2484 409 2743 651 
Q 3003 894 3003 1313 
Q 3003 1734 2745 1975 
Q 2488 2216 2034 2216 
z
M 1403 2484 
Q 997 2584 770 2862 
Q 544 3141 544 3541 
Q 544 4100 942 4425 
Q 1341 4750 2034 4750 
Q 2731 4750 3128 4425 
Q 3525 4100 3525 3541 
Q 3525 3141 3298 2862 
Q 3072 2584 2669 2484 
Q 3125 2378 3379 2068 
Q 3634 1759 3634 1313 
Q 3634 634 3220 271 
Q 2806 -91 2034 -91 
Q 1263 -91 848 271 
Q 434 634 434 1313 
Q 434 1759 690 2068 
Q 947 2378 1403 2484 
z
M 1172 3481 
Q 1172 3119 1398 2916 
Q 1625 2713 2034 2713 
Q 2441 2713 2670 2916 
Q 2900 3119 2900 3481 
Q 2900 3844 2670 4047 
Q 2441 4250 2034 4250 
Q 1625 4250 1398 4047 
Q 1172 3844 1172 3481 
z
" transform="scale(0.015625)"/>
       </defs>
       <use xlink:href="#DejaVuSans-30"/>
       <use xlink:href="#DejaVuSans-2e" x="63.623047"/>
       <use xlink:href="#DejaVuSans-38" x="95.410156"/>
      </g>
     </g>
    </g>
    <g id="ytick_6">
     <g id="line2d_22">
      <path d="M 162 60.783728 
L 1166.4 60.783728 
" clip-path="url(#pd3498c3752)" style="fill: none; stroke: #b0b0b0; stroke-width: 0.8; stroke-linecap: square"/>
     </g>
     <g id="line2d_23">
      <g>
       <use xlink:href="#m61a65a8b1c" x="162" y="60.783728" style="stroke: #000000; stroke-width: 0.8"/>
      </g>
     </g>
     <g id="text_18">
      <!-- 0.9 -->
      <g transform="translate(139.096875 64.582947) scale(0.1 -0.1)">
       <defs>
        <path id="DejaVuSans-39" d="M 703 97 
L 703 672 
Q 941 559 1184 500 
Q 1428 441 1663 441 
Q 2288 441 2617 861 
Q 2947 1281 2994 2138 
Q 2813 1869 2534 1725 
Q 2256 1581 1919 1581 
Q 1219 1581 811 2004 
Q 403 2428 403 3163 
Q 403 3881 828 4315 
Q 1253 4750 1959 4750 
Q 2769 4750 3195 4129 
Q 3622 3509 3622 2328 
Q 3622 1225 3098 567 
Q 2575 -91 1691 -91 
Q 1453 -91 1209 -44 
Q 966 3 703 97 
z
M 1959 2075 
Q 2384 2075 2632 2365 
Q 2881 2656 2881 3163 
Q 2881 3666 2632 3958 
Q 2384 4250 1959 4250 
Q 1534 4250 1286 3958 
Q 1038 3666 1038 3163 
Q 1038 2656 1286 2365 
Q 1534 2075 1959 2075 
z
" transform="scale(0.015625)"/>
       </defs>
       <use xlink:href="#DejaVuSans-30"/>
       <use xlink:href="#DejaVuSans-2e" x="63.623047"/>
       <use xlink:href="#DejaVuSans-39" x="95.410156"/>
      </g>
     </g>
    </g>
    <g id="text_19">
     <!-- Test Accuracy (%) -->
     <g transform="translate(117.017188 262.663906) rotate(-90) scale(0.1 -0.1)">
      <defs>
       <path id="DejaVuSans-20" transform="scale(0.015625)"/>
       <path id="DejaVuSans-41" d="M 2188 4044 
L 1331 1722 
L 3047 1722 
L 2188 4044 
z
M 1831 4666 
L 2547 4666 
L 4325 0 
L 3669 0 
L 3244 1197 
L 1141 1197 
L 716 0 
L 50 0 
L 1831 4666 
z
" transform="scale(0.015625)"/>
       <path id="DejaVuSans-63" d="M 3122 3366 
L 3122 2828 
Q 2878 2963 2633 3030 
Q 2388 3097 2138 3097 
Q 1578 3097 1268 2742 
Q 959 2388 959 1747 
Q 959 1106 1268 751 
Q 1578 397 2138 397 
Q 2388 397 2633 464 
Q 2878 531 3122 666 
L 3122 134 
Q 2881 22 2623 -34 
Q 2366 -91 2075 -91 
Q 1284 -91 818 406 
Q 353 903 353 1747 
Q 353 2603 823 3093 
Q 1294 3584 2113 3584 
Q 2378 3584 2631 3529 
Q 2884 3475 3122 3366 
z
" transform="scale(0.015625)"/>
       <path id="DejaVuSans-75" d="M 544 1381 
L 544 3500 
L 1119 3500 
L 1119 1403 
Q 1119 906 1312 657 
Q 1506 409 1894 409 
Q 2359 409 2629 706 
Q 2900 1003 2900 1516 
L 2900 3500 
L 3475 3500 
L 3475 0 
L 2900 0 
L 2900 538 
Q 2691 219 2414 64 
Q 2138 -91 1772 -91 
Q 1169 -91 856 284 
Q 544 659 544 1381 
z
M 1991 3584 
L 1991 3584 
z
" transform="scale(0.015625)"/>
       <path id="DejaVuSans-72" d="M 2631 2963 
Q 2534 3019 2420 3045 
Q 2306 3072 2169 3072 
Q 1681 3072 1420 2755 
Q 1159 2438 1159 1844 
L 1159 0 
L 581 0 
L 581 3500 
L 1159 3500 
L 1159 2956 
Q 1341 3275 1631 3429 
Q 1922 3584 2338 3584 
Q 2397 3584 2469 3576 
Q 2541 3569 2628 3553 
L 2631 2963 
z
" transform="scale(0.015625)"/>
       <path id="DejaVuSans-79" d="M 2059 -325 
Q 1816 -950 1584 -1140 
Q 1353 -1331 966 -1331 
L 506 -1331 
L 506 -850 
L 844 -850 
Q 1081 -850 1212 -737 
Q 1344 -625 1503 -206 
L 1606 56 
L 191 3500 
L 800 3500 
L 1894 763 
L 2988 3500 
L 3597 3500 
L 2059 -325 
z
" transform="scale(0.015625)"/>
       <path id="DejaVuSans-28" d="M 1984 4856 
Q 1566 4138 1362 3434 
Q 1159 2731 1159 2009 
Q 1159 1288 1364 580 
Q 1569 -128 1984 -844 
L 1484 -844 
Q 1016 -109 783 600 
Q 550 1309 550 2009 
Q 550 2706 781 3412 
Q 1013 4119 1484 4856 
L 1984 4856 
z
" transform="scale(0.015625)"/>
       <path id="DejaVuSans-25" d="M 4653 2053 
Q 4381 2053 4226 1822 
Q 4072 1591 4072 1178 
Q 4072 772 4226 539 
Q 4381 306 4653 306 
Q 4919 306 5073 539 
Q 5228 772 5228 1178 
Q 5228 1588 5073 1820 
Q 4919 2053 4653 2053 
z
M 4653 2450 
Q 5147 2450 5437 2106 
Q 5728 1763 5728 1178 
Q 5728 594 5436 251 
Q 5144 -91 4653 -91 
Q 4153 -91 3862 251 
Q 3572 594 3572 1178 
Q 3572 1766 3864 2108 
Q 4156 2450 4653 2450 
z
M 1428 4353 
Q 1159 4353 1004 4120 
Q 850 3888 850 3481 
Q 850 3069 1003 2837 
Q 1156 2606 1428 2606 
Q 1700 2606 1854 2837 
Q 2009 3069 2009 3481 
Q 2009 3884 1853 4118 
Q 1697 4353 1428 4353 
z
M 4250 4750 
L 4750 4750 
L 1831 -91 
L 1331 -91 
L 4250 4750 
z
M 1428 4750 
Q 1922 4750 2215 4408 
Q 2509 4066 2509 3481 
Q 2509 2891 2217 2550 
Q 1925 2209 1428 2209 
Q 931 2209 642 2551 
Q 353 2894 353 3481 
Q 353 4063 643 4406 
Q 934 4750 1428 4750 
z
" transform="scale(0.015625)"/>
       <path id="DejaVuSans-29" d="M 513 4856 
L 1013 4856 
Q 1481 4119 1714 3412 
Q 1947 2706 1947 2009 
Q 1947 1309 1714 600 
Q 1481 -109 1013 -844 
L 513 -844 
Q 928 -128 1133 580 
Q 1338 1288 1338 2009 
Q 1338 2731 1133 3434 
Q 928 4138 513 4856 
z
" transform="scale(0.015625)"/>
      </defs>
      <use xlink:href="#DejaVuSans-54"/>
      <use xlink:href="#DejaVuSans-65" x="44.083984"/>
      <use xlink:href="#DejaVuSans-73" x="105.607422"/>
      <use xlink:href="#DejaVuSans-74" x="157.707031"/>
      <use xlink:href="#DejaVuSans-20" x="196.916016"/>
      <use xlink:href="#DejaVuSans-41" x="228.703125"/>
      <use xlink:href="#DejaVuSans-63" x="295.361328"/>
      <use xlink:href="#DejaVuSans-63" x="350.341797"/>
      <use xlink:href="#DejaVuSans-75" x="405.322266"/>
      <use xlink:href="#DejaVuSans-72" x="468.701172"/>
      <use xlink:href="#DejaVuSans-61" x="509.814453"/>
      <use xlink:href="#DejaVuSans-63" x="571.09375"/>
      <use xlink:href="#DejaVuSans-79" x="626.074219"/>
      <use xlink:href="#DejaVuSans-20" x="685.253906"/>
      <use xlink:href="#DejaVuSans-28" x="717.041016"/>
      <use xlink:href="#DejaVuSans-25" x="756.054688"/>
      <use xlink:href="#DejaVuSans-29" x="851.074219"/>
     </g>
    </g>
   </g>
   <g id="patch_47">
    <path d="M 162 384.48 
L 162 51.84 
" style="fill: none; stroke: #000000; stroke-width: 0.8; stroke-linejoin: miter; stroke-linecap: square"/>
   </g>
   <g id="patch_48">
    <path d="M 1166.4 384.48 
L 1166.4 51.84 
" style="fill: none; stroke: #000000; stroke-width: 0.8; stroke-linejoin: miter; stroke-linecap: square"/>
   </g>
   <g id="patch_49">
    <path d="M 162 384.48 
L 1166.4 384.48 
" style="fill: none; stroke: #000000; stroke-width: 0.8; stroke-linejoin: miter; stroke-linecap: square"/>
   </g>
   <g id="patch_50">
    <path d="M 162 51.84 
L 1166.4 51.84 
" style="fill: none; stroke: #000000; stroke-width: 0.8; stroke-linejoin: miter; stroke-linecap: square"/>
   </g>
   <g id="text_20">
    <!-- Performance by data sizes (Total no. of rows) -->
    <g transform="translate(529.410938 36.84) scale(0.12 -0.12)">
     <defs>
      <path id="DejaVuSans-50" d="M 1259 4147 
L 1259 2394 
L 2053 2394 
Q 2494 2394 2734 2622 
Q 2975 2850 2975 3272 
Q 2975 3691 2734 3919 
Q 2494 4147 2053 4147 
L 1259 4147 
z
M 628 4666 
L 2053 4666 
Q 2838 4666 3239 4311 
Q 3641 3956 3641 3272 
Q 3641 2581 3239 2228 
Q 2838 1875 2053 1875 
L 1259 1875 
L 1259 0 
L 628 0 
L 628 4666 
z
" transform="scale(0.015625)"/>
      <path id="DejaVuSans-66" d="M 2375 4863 
L 2375 4384 
L 1825 4384 
Q 1516 4384 1395 4259 
Q 1275 4134 1275 3809 
L 1275 3500 
L 2222 3500 
L 2222 3053 
L 1275 3053 
L 1275 0 
L 697 0 
L 697 3053 
L 147 3053 
L 147 3500 
L 697 3500 
L 697 3744 
Q 697 4328 969 4595 
Q 1241 4863 1831 4863 
L 2375 4863 
z
" transform="scale(0.015625)"/>
      <path id="DejaVuSans-62" d="M 3116 1747 
Q 3116 2381 2855 2742 
Q 2594 3103 2138 3103 
Q 1681 3103 1420 2742 
Q 1159 2381 1159 1747 
Q 1159 1113 1420 752 
Q 1681 391 2138 391 
Q 2594 391 2855 752 
Q 3116 1113 3116 1747 
z
M 1159 2969 
Q 1341 3281 1617 3432 
Q 1894 3584 2278 3584 
Q 2916 3584 3314 3078 
Q 3713 2572 3713 1747 
Q 3713 922 3314 415 
Q 2916 -91 2278 -91 
Q 1894 -91 1617 61 
Q 1341 213 1159 525 
L 1159 0 
L 581 0 
L 581 4863 
L 1159 4863 
L 1159 2969 
z
" transform="scale(0.015625)"/>
      <path id="DejaVuSans-7a" d="M 353 3500 
L 3084 3500 
L 3084 2975 
L 922 459 
L 3084 459 
L 3084 0 
L 275 0 
L 275 525 
L 2438 3041 
L 353 3041 
L 353 3500 
z
" transform="scale(0.015625)"/>
      <path id="DejaVuSans-77" d="M 269 3500 
L 844 3500 
L 1563 769 
L 2278 3500 
L 2956 3500 
L 3675 769 
L 4391 3500 
L 4966 3500 
L 4050 0 
L 3372 0 
L 2619 2869 
L 1863 0 
L 1184 0 
L 269 3500 
z
" transform="scale(0.015625)"/>
     </defs>
     <use xlink:href="#DejaVuSans-50"/>
     <use xlink:href="#DejaVuSans-65" x="56.677734"/>
     <use xlink:href="#DejaVuSans-72" x="118.201172"/>
     <use xlink:href="#DejaVuSans-66" x="159.314453"/>
     <use xlink:href="#DejaVuSans-6f" x="194.519531"/>
     <use xlink:href="#DejaVuSans-72" x="255.701172"/>
     <use xlink:href="#DejaVuSans-6d" x="295.064453"/>
     <use xlink:href="#DejaVuSans-61" x="392.476562"/>
     <use xlink:href="#DejaVuSans-6e" x="453.755859"/>
     <use xlink:href="#DejaVuSans-63" x="517.134766"/>
     <use xlink:href="#DejaVuSans-65" x="572.115234"/>
     <use xlink:href="#DejaVuSans-20" x="633.638672"/>
     <use xlink:href="#DejaVuSans-62" x="665.425781"/>
     <use xlink:href="#DejaVuSans-79" x="728.902344"/>
     <use xlink:href="#DejaVuSans-20" x="788.082031"/>
     <use xlink:href="#DejaVuSans-64" x="819.869141"/>
     <use xlink:href="#DejaVuSans-61" x="883.345703"/>
     <use xlink:href="#DejaVuSans-74" x="944.625"/>
     <use xlink:href="#DejaVuSans-61" x="983.833984"/>
     <use xlink:href="#DejaVuSans-20" x="1045.113281"/>
     <use xlink:href="#DejaVuSans-73" x="1076.900391"/>
     <use xlink:href="#DejaVuSans-69" x="1129"/>
     <use xlink:href="#DejaVuSans-7a" x="1156.783203"/>
     <use xlink:href="#DejaVuSans-65" x="1209.273438"/>
     <use xlink:href="#DejaVuSans-73" x="1270.796875"/>
     <use xlink:href="#DejaVuSans-20" x="1322.896484"/>
     <use xlink:href="#DejaVuSans-28" x="1354.683594"/>
     <use xlink:href="#DejaVuSans-54" x="1393.697266"/>
     <use xlink:href="#DejaVuSans-6f" x="1437.78125"/>
     <use xlink:href="#DejaVuSans-74" x="1498.962891"/>
     <use xlink:href="#DejaVuSans-61" x="1538.171875"/>
     <use xlink:href="#DejaVuSans-6c" x="1599.451172"/>
     <use xlink:href="#DejaVuSans-20" x="1627.234375"/>
     <use xlink:href="#DejaVuSans-6e" x="1659.021484"/>
     <use xlink:href="#DejaVuSans-6f" x="1722.400391"/>
     <use xlink:href="#DejaVuSans-2e" x="1781.832031"/>
     <use xlink:href="#DejaVuSans-20" x="1813.619141"/>
     <use xlink:href="#DejaVuSans-6f" x="1845.40625"/>
     <use xlink:href="#DejaVuSans-66" x="1906.587891"/>
     <use xlink:href="#DejaVuSans-20" x="1941.792969"/>
     <use xlink:href="#DejaVuSans-72" x="1973.580078"/>
     <use xlink:href="#DejaVuSans-6f" x="2012.443359"/>
     <use xlink:href="#DejaVuSans-77" x="2073.625"/>
     <use xlink:href="#DejaVuSans-73" x="2155.412109"/>
     <use xlink:href="#DejaVuSans-29" x="2207.511719"/>
    </g>
   </g>
   <g id="legend_1">
    <g id="patch_51">
     <path d="M 1095.5875 118.5525 
L 1159.4 118.5525 
Q 1161.4 118.5525 1161.4 116.5525 
L 1161.4 58.84 
Q 1161.4 56.84 1159.4 56.84 
L 1095.5875 56.84 
Q 1093.5875 56.84 1093.5875 58.84 
L 1093.5875 116.5525 
Q 1093.5875 118.5525 1095.5875 118.5525 
z
" style="fill: #ffffff; opacity: 0.8; stroke: #cccccc; stroke-linejoin: miter"/>
    </g>
    <g id="patch_52">
     <path d="M 1097.5875 68.438438 
L 1117.5875 68.438438 
L 1117.5875 61.438438 
L 1097.5875 61.438438 
z
" style="fill: #1f77b4"/>
    </g>
    <g id="text_21">
     <!-- 30000 -->
     <g transform="translate(1125.5875 68.438438) scale(0.1 -0.1)">
      <defs>
       <path id="DejaVuSans-33" d="M 2597 2516 
Q 3050 2419 3304 2112 
Q 3559 1806 3559 1356 
Q 3559 666 3084 287 
Q 2609 -91 1734 -91 
Q 1441 -91 1130 -33 
Q 819 25 488 141 
L 488 750 
Q 750 597 1062 519 
Q 1375 441 1716 441 
Q 2309 441 2620 675 
Q 2931 909 2931 1356 
Q 2931 1769 2642 2001 
Q 2353 2234 1838 2234 
L 1294 2234 
L 1294 2753 
L 1863 2753 
Q 2328 2753 2575 2939 
Q 2822 3125 2822 3475 
Q 2822 3834 2567 4026 
Q 2313 4219 1838 4219 
Q 1578 4219 1281 4162 
Q 984 4106 628 3988 
L 628 4550 
Q 988 4650 1302 4700 
Q 1616 4750 1894 4750 
Q 2613 4750 3031 4423 
Q 3450 4097 3450 3541 
Q 3450 3153 3228 2886 
Q 3006 2619 2597 2516 
z
" transform="scale(0.015625)"/>
      </defs>
      <use xlink:href="#DejaVuSans-33"/>
      <use xlink:href="#DejaVuSans-30" x="63.623047"/>
      <use xlink:href="#DejaVuSans-30" x="127.246094"/>
      <use xlink:href="#DejaVuSans-30" x="190.869141"/>
      <use xlink:href="#DejaVuSans-30" x="254.492188"/>
     </g>
    </g>
    <g id="patch_53">
     <path d="M 1097.5875 83.116563 
L 1117.5875 83.116563 
L 1117.5875 76.116563 
L 1097.5875 76.116563 
z
" style="fill: #ff7f0e"/>
    </g>
    <g id="text_22">
     <!-- 10000 -->
     <g transform="translate(1125.5875 83.116563) scale(0.1 -0.1)">
      <defs>
       <path id="DejaVuSans-31" d="M 794 531 
L 1825 531 
L 1825 4091 
L 703 3866 
L 703 4441 
L 1819 4666 
L 2450 4666 
L 2450 531 
L 3481 531 
L 3481 0 
L 794 0 
L 794 531 
z
" transform="scale(0.015625)"/>
      </defs>
      <use xlink:href="#DejaVuSans-31"/>
      <use xlink:href="#DejaVuSans-30" x="63.623047"/>
      <use xlink:href="#DejaVuSans-30" x="127.246094"/>
      <use xlink:href="#DejaVuSans-30" x="190.869141"/>
      <use xlink:href="#DejaVuSans-30" x="254.492188"/>
     </g>
    </g>
    <g id="patch_54">
     <path d="M 1097.5875 97.794688 
L 1117.5875 97.794688 
L 1117.5875 90.794688 
L 1097.5875 90.794688 
z
" style="fill: #2ca02c"/>
    </g>
    <g id="text_23">
     <!-- 5000 -->
     <g transform="translate(1125.5875 97.794688) scale(0.1 -0.1)">
      <use xlink:href="#DejaVuSans-35"/>
      <use xlink:href="#DejaVuSans-30" x="63.623047"/>
      <use xlink:href="#DejaVuSans-30" x="127.246094"/>
      <use xlink:href="#DejaVuSans-30" x="190.869141"/>
     </g>
    </g>
    <g id="patch_55">
     <path d="M 1097.5875 112.472813 
L 1117.5875 112.472813 
L 1117.5875 105.472813 
L 1097.5875 105.472813 
z
" style="fill: #d62728"/>
    </g>
    <g id="text_24">
     <!-- 1000 -->
     <g transform="translate(1125.5875 112.472813) scale(0.1 -0.1)">
      <use xlink:href="#DejaVuSans-31"/>
      <use xlink:href="#DejaVuSans-30" x="63.623047"/>
      <use xlink:href="#DejaVuSans-30" x="127.246094"/>
      <use xlink:href="#DejaVuSans-30" x="190.869141"/>
     </g>
    </g>
   </g>
  </g>
 </g>
 <defs>
  <clipPath id="pd3498c3752">
   <rect x="162" y="51.84" width="1004.4" height="332.64"/>
  </clipPath>
 </defs>
</svg>
